<?xml version="1.0" encoding="utf-8"?>
<svg xmlns="http://www.w3.org/2000/svg" height="512pt" version="1.1" viewBox="0 0 512 512" width="512pt">
<path d="M 0.00 0.00 L 512.00 0.00 L 512.00 512.00 L 0.00 512.00 L 0.00 242.39 C 24.99 242.55 49.97 242.34 74.96 242.62 C 80.36 242.70 85.77 242.60 91.16 242.27 C 92.97 239.90 94.93 237.17 94.33 234.00 C 93.96 230.73 90.82 228.50 87.63 228.64 C 87.95 225.43 88.24 222.21 88.22 218.98 C 88.07 199.32 88.19 179.66 88.14 160.00 C 87.57 145.79 87.88 131.56 87.65 117.34 C 93.41 118.38 96.61 111.16 94.35 106.65 C 93.16 104.34 90.43 103.70 88.03 103.81 C 58.69 103.87 29.34 103.75 0.00 103.81 L 0.00 0.00 Z" fill="#ecebbb" opacity="1.00" stroke="#ecebbb" stroke-width="0.25"/>
<path d="M 228.65 101.62 C 235.19 101.42 241.81 101.40 248.12 103.35 C 244.36 104.72 241.12 107.15 237.40 108.63 C 234.54 108.28 231.65 108.20 228.78 108.31 C 228.90 106.11 228.84 103.90 228.66 101.71 L 228.65 101.62 Z" fill="#e46a4d" opacity="1.00" stroke="#e46a4d" stroke-width="0.25"/>
<path d="M 203.84 110.77 C 210.72 104.93 219.77 102.23 228.66 101.71 C 228.84 103.90 228.90 106.11 228.78 108.31 C 219.40 109.18 209.94 112.45 203.08 119.11 C 189.67 131.20 186.46 152.28 194.16 168.35 C 192.96 171.90 193.30 175.66 193.78 179.30 C 184.85 167.98 181.20 152.22 185.39 138.28 C 188.59 127.55 194.98 117.68 203.84 110.77 Z" fill="#df9768" opacity="1.00" stroke="#df9768" stroke-width="0.25"/>
<path d="M 0.00 103.81 C 29.34 103.75 58.69 103.87 88.03 103.81 C 90.43 103.70 93.16 104.34 94.35 106.65 C 96.61 111.16 93.41 118.38 87.65 117.34 C 58.43 116.85 29.21 117.57 0.00 116.86 L 0.00 103.81 Z" fill="#022548" opacity="1.00" stroke="#022548" stroke-width="0.25"/>
<path d="M 237.40 108.63 C 241.12 107.15 244.36 104.72 248.12 103.35 C 259.62 106.81 269.91 114.56 275.93 125.03 C 285.08 139.53 284.90 158.74 277.49 173.93 C 276.43 172.82 275.38 171.72 274.32 170.62 C 275.01 169.70 275.69 168.77 276.38 167.85 C 275.94 166.93 275.51 166.00 275.09 165.09 C 275.87 164.43 276.65 163.76 277.39 163.04 C 275.09 163.07 272.93 163.83 270.99 165.00 C 271.75 162.86 272.35 160.65 272.78 158.42 C 274.40 150.04 274.37 140.91 270.26 133.21 C 264.68 119.85 251.58 110.67 237.40 108.63 Z" fill="#f26249" opacity="1.00" stroke="#f26249" stroke-width="0.25"/>
<path d="M 203.08 119.11 C 209.94 112.45 219.40 109.18 228.78 108.31 C 231.65 108.20 234.54 108.28 237.40 108.63 C 251.58 110.67 264.68 119.85 270.26 133.21 C 269.79 136.71 270.64 140.13 271.76 143.42 C 271.33 143.46 270.46 143.55 270.03 143.60 C 269.92 144.63 269.81 145.68 269.71 146.72 C 269.09 145.42 268.46 144.12 267.84 142.83 C 267.70 142.53 267.44 141.93 267.30 141.63 C 265.69 137.33 263.89 133.02 260.83 129.53 C 253.59 120.44 242.48 114.13 230.69 114.17 C 226.67 114.41 222.52 114.83 218.87 116.65 C 213.73 119.34 208.29 122.06 204.85 126.92 C 199.86 132.96 197.05 140.54 196.62 148.35 C 196.62 148.88 196.63 149.94 196.64 150.47 C 196.31 169.27 212.94 186.87 231.98 186.21 C 233.26 186.08 234.53 185.93 235.80 185.75 C 235.32 187.92 235.47 190.11 236.90 191.91 C 236.51 192.00 235.74 192.18 235.35 192.27 C 226.30 193.17 217.06 190.80 209.47 185.82 C 203.18 181.20 197.54 175.46 194.16 168.35 C 186.46 152.28 189.67 131.20 203.08 119.11 Z" fill="#0f3362" opacity="1.00" stroke="#0f3362" stroke-width="0.25"/>
<path d="M 387.85 117.06 C 387.54 113.12 390.81 108.75 395.01 109.22 C 428.33 109.38 461.66 109.46 494.98 109.38 C 498.52 108.88 501.71 111.77 502.61 115.02 C 503.88 131.65 502.40 148.34 503.13 164.99 C 502.67 177.67 502.90 190.37 502.84 203.05 C 502.83 204.48 502.71 205.95 502.02 207.23 C 501.92 205.15 501.80 203.07 501.75 200.99 C 501.21 203.41 500.48 205.87 498.52 207.55 C 497.91 206.24 497.64 204.83 497.49 203.41 C 495.18 204.51 492.62 205.47 490.37 203.71 C 490.66 202.76 490.93 201.82 491.20 200.86 C 491.18 200.56 491.15 199.96 491.13 199.66 C 490.33 173.84 490.99 147.97 490.73 122.13 C 460.71 122.19 430.70 122.31 400.69 122.12 C 400.65 134.44 400.77 146.77 400.85 159.10 C 396.71 158.44 392.49 158.26 388.33 158.72 C 388.24 144.83 387.69 130.95 387.85 117.06 Z" fill="#f16648" opacity="1.00" stroke="#f16648" stroke-width="0.25"/>
<path d="M 218.87 116.65 C 222.52 114.83 226.67 114.41 230.69 114.17 C 230.60 115.66 230.52 117.15 230.42 118.64 C 229.35 128.73 229.85 138.88 229.42 149.00 C 228.83 151.57 231.40 152.69 233.13 153.89 C 233.07 162.19 232.69 170.50 233.08 178.80 C 232.14 179.83 231.88 180.95 232.31 182.16 C 232.62 182.98 232.95 183.79 233.29 184.61 C 232.85 185.14 232.41 185.67 231.98 186.21 C 212.94 186.87 196.31 169.27 196.64 150.47 C 198.67 150.47 200.71 150.48 202.74 150.50 C 202.76 149.98 202.79 148.96 202.81 148.44 C 200.75 148.42 198.68 148.38 196.62 148.35 C 197.05 140.54 199.86 132.96 204.85 126.92 C 208.29 122.06 213.73 119.34 218.87 116.65 Z" fill="#fa7d49" opacity="1.00" stroke="#fa7d49" stroke-width="0.25"/>
<path d="M 230.69 114.17 C 242.48 114.13 253.59 120.44 260.83 129.53 C 260.10 130.66 259.39 131.80 258.68 132.94 C 258.56 132.08 258.34 130.37 258.23 129.51 C 255.00 133.24 252.75 137.73 249.19 141.19 C 246.86 143.66 243.78 146.19 243.91 149.93 C 243.81 157.29 250.22 162.59 256.28 165.58 C 258.99 166.66 258.53 170.12 259.28 172.45 C 253.60 179.80 245.06 184.74 235.80 185.75 C 234.53 185.93 233.26 186.08 231.98 186.21 C 232.41 185.67 232.85 185.14 233.29 184.61 C 232.95 183.79 232.62 182.98 232.31 182.16 C 234.68 182.86 234.46 179.77 233.08 178.80 C 232.69 170.50 233.07 162.19 233.13 153.89 C 234.95 154.62 236.83 155.20 238.71 155.75 C 238.65 154.06 238.99 152.28 238.36 150.68 C 237.04 149.45 235.31 148.81 233.74 147.98 C 234.65 139.02 233.34 130.02 233.88 121.04 C 232.73 120.24 231.58 119.44 230.42 118.64 C 230.52 117.15 230.60 115.66 230.69 114.17 Z" fill="#f56c48" opacity="1.00" stroke="#f56c48" stroke-width="0.25"/>
<path d="M 0.00 116.86 C 29.21 117.57 58.43 116.85 87.65 117.34 C 87.88 131.56 87.57 145.79 88.14 160.00 C 88.19 179.66 88.07 199.32 88.22 218.98 C 88.24 222.21 87.95 225.43 87.63 228.64 C 58.43 229.50 29.21 229.02 0.00 229.14 L 0.00 193.79 C 16.65 193.12 33.34 193.54 50.00 193.33 C 53.93 193.12 58.02 193.93 61.83 192.83 C 64.56 190.87 62.76 187.48 60.92 185.59 C 60.85 184.26 61.79 182.55 60.28 181.73 C 58.61 181.03 56.78 180.82 55.01 180.50 C 57.13 180.29 59.28 180.03 61.29 179.29 C 64.37 177.57 63.42 173.78 61.28 171.72 C 61.00 171.34 60.45 170.57 60.17 170.19 C 61.53 170.23 62.89 170.27 64.25 170.30 C 62.71 168.43 60.76 167.00 58.34 166.55 C 59.27 166.09 60.20 165.62 61.12 165.13 C 63.70 163.27 63.71 158.23 60.03 157.75 C 40.03 157.52 20.01 157.78 0.00 157.55 L 0.00 116.86 Z" fill="#38c4ca" opacity="1.00" stroke="#38c4ca" stroke-width="0.25"/>
<path d="M 230.42 118.64 C 231.58 119.44 232.73 120.24 233.88 121.04 C 233.34 130.02 234.65 139.02 233.74 147.98 C 235.31 148.81 237.04 149.45 238.36 150.68 C 238.99 152.28 238.65 154.06 238.71 155.75 C 236.83 155.20 234.95 154.62 233.13 153.89 C 231.40 152.69 228.83 151.57 229.42 149.00 C 229.85 138.88 229.35 128.73 230.42 118.64 Z" fill="#2c374a" opacity="1.00" stroke="#2c374a" stroke-width="0.25"/>
<path d="M 215.22 121.08 C 216.10 119.96 218.72 121.05 217.77 122.49 C 216.88 123.53 214.35 122.51 215.22 121.08 Z" fill="#a3544c" opacity="1.00" stroke="#a3544c" stroke-width="0.25"/>
<path d="M 248.15 122.30 C 249.11 121.20 251.44 122.54 250.49 123.88 C 249.53 125.04 247.09 123.65 248.15 122.30 Z" fill="#c7353f" opacity="1.00" stroke="#c7353f" stroke-width="0.25"/>
<path d="M 400.69 122.12 C 430.70 122.31 460.71 122.19 490.73 122.13 C 490.99 147.97 490.33 173.84 491.13 199.66 C 467.10 199.86 443.06 199.49 419.02 199.62 C 418.85 199.97 418.50 200.66 418.32 201.01 C 420.37 195.45 421.79 189.68 422.95 183.87 C 436.54 183.85 450.14 183.66 463.74 183.95 C 463.55 182.85 463.36 181.74 463.17 180.63 C 449.86 180.75 436.56 180.62 423.25 180.82 C 423.07 178.40 422.75 175.98 422.14 173.63 C 441.48 174.96 460.88 174.07 480.26 174.38 C 480.24 173.58 480.21 171.98 480.20 171.18 C 460.47 171.36 440.74 170.37 421.02 170.92 C 418.23 166.81 413.21 165.49 408.49 165.59 C 406.52 162.84 404.06 160.34 400.85 159.10 C 400.77 146.77 400.65 134.44 400.69 122.12 Z" fill="#fdfefd" opacity="1.00" stroke="#fdfefd" stroke-width="0.25"/>
<path d="M 203.51 129.75 C 205.53 130.03 207.25 131.10 208.06 133.01 C 205.86 133.50 203.74 132.00 203.51 129.75 Z" fill="#9d5849" opacity="1.00" stroke="#9d5849" stroke-width="0.25"/>
<path d="M 249.19 141.19 C 252.75 137.73 255.00 133.24 258.23 129.51 C 258.34 130.37 258.56 132.08 258.68 132.94 C 259.39 131.80 260.10 130.66 260.83 129.53 C 263.89 133.02 265.69 137.33 267.30 141.63 C 267.32 143.48 267.30 145.33 267.30 147.19 C 265.52 147.59 263.73 148.00 261.95 148.40 C 262.02 149.01 262.15 150.21 262.22 150.81 C 263.62 150.81 265.02 150.77 266.42 150.69 C 267.17 151.97 267.87 153.43 267.51 154.96 C 266.60 161.46 263.43 167.44 259.28 172.45 C 258.53 170.12 258.99 166.66 256.28 165.58 C 250.22 162.59 243.81 157.29 243.91 149.93 C 243.78 146.19 246.86 143.66 249.19 141.19 Z" fill="#ea513e" opacity="1.00" stroke="#ea513e" stroke-width="0.25"/>
<path d="M 270.26 133.21 C 274.37 140.91 274.40 150.04 272.78 158.42 C 272.23 155.15 271.03 152.05 269.45 149.15 C 269.19 150.88 268.93 152.61 268.66 154.34 C 268.33 152.90 268.01 151.46 267.72 150.02 C 268.02 147.63 268.15 145.22 267.84 142.83 C 268.46 144.12 269.09 145.42 269.71 146.72 C 269.81 145.68 269.92 144.63 270.03 143.60 C 270.46 143.55 271.33 143.46 271.76 143.42 C 270.64 140.13 269.79 136.71 270.26 133.21 Z" fill="#152850" opacity="1.00" stroke="#152850" stroke-width="0.25"/>
<path d="M 411.16 139.73 C 434.22 139.42 457.28 139.80 480.34 139.64 C 480.27 140.44 480.13 142.04 480.07 142.84 C 457.09 142.68 434.12 142.89 411.15 142.77 C 411.15 142.01 411.16 140.49 411.16 139.73 Z" fill="#36b5c6" opacity="1.00" stroke="#36b5c6" stroke-width="0.25"/>
<path d="M 267.30 141.63 C 267.44 141.93 267.70 142.53 267.84 142.83 C 268.15 145.22 268.02 147.63 267.72 150.02 C 267.40 150.19 266.74 150.52 266.42 150.69 C 265.02 150.77 263.62 150.81 262.22 150.81 C 262.15 150.21 262.02 149.01 261.95 148.40 C 263.73 148.00 265.52 147.59 267.30 147.19 C 267.30 145.33 267.32 143.48 267.30 141.63 Z" fill="#884041" opacity="1.00" stroke="#884041" stroke-width="0.25"/>
<path d="M 196.62 148.35 C 198.68 148.38 200.75 148.42 202.81 148.44 C 202.79 148.96 202.76 149.98 202.74 150.50 C 200.71 150.48 198.67 150.47 196.64 150.47 C 196.63 149.94 196.62 148.88 196.62 148.35 Z" fill="#8d3f35" opacity="1.00" stroke="#8d3f35" stroke-width="0.25"/>
<path d="M 269.45 149.15 C 271.03 152.05 272.23 155.15 272.78 158.42 C 272.35 160.65 271.75 162.86 270.99 165.00 C 265.77 179.44 251.93 189.74 236.90 191.91 C 235.47 190.11 235.32 187.92 235.80 185.75 C 245.06 184.74 253.60 179.80 259.28 172.45 C 263.43 167.44 266.60 161.46 267.51 154.96 C 267.87 153.43 267.17 151.97 266.42 150.69 C 266.74 150.52 267.40 150.19 267.72 150.02 C 268.01 151.46 268.33 152.90 268.66 154.34 C 268.93 152.61 269.19 150.88 269.45 149.15 Z" fill="#082b5a" opacity="1.00" stroke="#082b5a" stroke-width="0.25"/>
<path d="M 411.14 150.34 C 434.25 150.24 457.37 150.32 480.47 150.60 C 480.35 151.41 480.10 153.04 479.97 153.85 C 457.11 153.60 434.24 154.08 411.39 153.60 C 411.30 152.51 411.21 151.42 411.14 150.34 Z" fill="#3eb4cb" opacity="1.00" stroke="#3eb4cb" stroke-width="0.25"/>
<path d="M 0.00 157.55 C 20.01 157.78 40.03 157.52 60.03 157.75 C 63.71 158.23 63.70 163.27 61.12 165.13 C 40.75 165.30 20.36 165.48 0.00 165.28 L 0.00 157.55 Z" fill="#fcfefd" opacity="1.00" stroke="#fcfefd" stroke-width="0.25"/>
<path d="M 360.53 172.65 C 358.23 167.56 358.40 160.32 363.90 157.36 C 367.03 159.35 370.04 162.17 373.97 162.18 C 378.99 162.20 383.57 159.97 388.33 158.72 C 392.49 158.26 396.71 158.44 400.85 159.10 C 404.06 160.34 406.52 162.84 408.49 165.59 C 413.21 165.49 418.23 166.81 421.02 170.92 C 421.30 171.60 421.86 172.95 422.14 173.63 C 422.75 175.98 423.07 178.40 423.25 180.82 C 423.17 181.58 423.02 183.11 422.95 183.87 C 421.79 189.68 420.37 195.45 418.32 201.01 C 416.91 204.78 415.09 208.38 413.06 211.85 C 411.71 211.98 410.35 212.11 409.01 212.25 C 409.26 209.31 409.29 206.20 411.37 203.87 C 412.62 201.82 413.78 199.45 413.34 196.98 C 411.96 195.06 408.68 193.88 406.93 195.95 C 404.83 197.78 404.11 200.55 404.51 203.24 L 404.52 203.88 C 401.81 201.82 398.66 200.07 396.94 197.01 C 394.18 192.27 393.06 186.76 392.99 181.33 C 384.82 182.29 376.48 183.12 368.36 181.31 C 364.55 179.91 362.16 176.18 360.53 172.65 Z" fill="#010640" opacity="1.00" stroke="#010640" stroke-width="0.25"/>
<path d="M 409.96 163.77 C 410.25 162.54 409.88 160.20 411.95 160.71 C 434.79 160.35 457.63 160.79 480.47 160.65 C 480.47 161.55 480.48 163.34 480.48 164.24 C 456.98 164.06 433.45 164.54 409.96 163.77 Z" fill="#32b5ca" opacity="1.00" stroke="#32b5ca" stroke-width="0.25"/>
<path d="M 270.99 165.00 C 272.93 163.83 275.09 163.07 277.39 163.04 C 276.65 163.76 275.87 164.43 275.09 165.09 C 275.51 166.00 275.94 166.93 276.38 167.85 C 275.69 168.77 275.01 169.70 274.32 170.62 C 275.38 171.72 276.43 172.82 277.49 173.93 C 267.92 192.72 245.23 203.25 224.64 199.31 L 224.61 199.16 C 224.27 197.21 223.91 195.27 223.55 193.33 C 227.52 193.60 231.54 193.51 235.35 192.27 C 235.74 192.18 236.51 192.00 236.90 191.91 C 251.93 189.74 265.77 179.44 270.99 165.00 Z" fill="#ec5743" opacity="1.00" stroke="#ec5743" stroke-width="0.25"/>
<path d="M 0.00 165.28 C 20.36 165.48 40.75 165.30 61.12 165.13 C 60.20 165.62 59.27 166.09 58.34 166.55 C 60.76 167.00 62.71 168.43 64.25 170.30 C 62.89 170.27 61.53 170.23 60.17 170.19 C 60.45 170.57 61.00 171.34 61.28 171.72 C 40.85 171.86 20.43 171.86 0.00 171.79 L 0.00 165.28 Z" fill="#42c0c8" opacity="1.00" stroke="#42c0c8" stroke-width="0.25"/>
<path d="M 194.16 168.35 C 197.54 175.46 203.18 181.20 209.47 185.82 C 208.27 185.68 207.07 185.55 205.87 185.45 C 206.70 186.67 207.53 187.89 208.37 189.11 C 208.00 190.11 207.63 191.12 207.26 192.13 C 202.16 188.61 196.86 184.81 193.78 179.30 C 193.30 175.66 192.96 171.90 194.16 168.35 Z" fill="#da8962" opacity="1.00" stroke="#da8962" stroke-width="0.25"/>
<path d="M 421.02 170.92 C 440.74 170.37 460.47 171.36 480.20 171.18 C 480.21 171.98 480.24 173.58 480.26 174.38 C 460.88 174.07 441.48 174.96 422.14 173.63 C 421.86 172.95 421.30 171.60 421.02 170.92 Z" fill="#39bace" opacity="1.00" stroke="#39bace" stroke-width="0.25"/>
<path d="M 0.00 171.79 C 20.43 171.86 40.85 171.86 61.28 171.72 C 63.42 173.78 64.37 177.57 61.29 179.29 C 40.86 179.26 20.43 179.45 0.00 179.26 L 0.00 171.79 Z" fill="#fdfefd" opacity="1.00" stroke="#fdfefd" stroke-width="0.25"/>
<path d="M 212.15 176.53 C 213.34 175.66 214.53 177.77 213.60 178.64 C 212.40 179.56 211.16 177.40 212.15 176.53 Z" fill="#c25538" opacity="1.00" stroke="#c25538" stroke-width="0.25"/>
<path d="M 247.87 175.87 C 249.87 174.69 251.08 177.08 251.05 178.73 C 250.28 178.75 248.74 178.80 247.98 178.82 C 247.95 178.08 247.90 176.60 247.87 175.87 Z" fill="#893939" opacity="1.00" stroke="#893939" stroke-width="0.25"/>
<path d="M 0.00 179.26 C 20.43 179.45 40.86 179.26 61.29 179.29 C 59.28 180.03 57.13 180.29 55.01 180.50 C 56.78 180.82 58.61 181.03 60.28 181.73 C 61.79 182.55 60.85 184.26 60.92 185.59 C 40.61 185.57 20.31 185.76 0.00 185.63 L 0.00 179.26 Z" fill="#3ebfcd" opacity="1.00" stroke="#3ebfcd" stroke-width="0.25"/>
<path d="M 233.08 178.80 C 234.46 179.77 234.68 182.86 232.31 182.16 C 231.88 180.95 232.14 179.83 233.08 178.80 Z" fill="#aa4639" opacity="1.00" stroke="#aa4639" stroke-width="0.25"/>
<path d="M 423.25 180.82 C 436.56 180.62 449.86 180.75 463.17 180.63 C 463.36 181.74 463.55 182.85 463.74 183.95 C 450.14 183.66 436.54 183.85 422.95 183.87 C 423.02 183.11 423.17 181.58 423.25 180.82 Z" fill="#42b0cd" opacity="1.00" stroke="#42b0cd" stroke-width="0.25"/>
<path d="M 368.36 181.31 C 376.48 183.12 384.82 182.29 392.99 181.33 C 393.06 186.76 394.18 192.27 396.94 197.01 C 398.66 200.07 401.81 201.82 404.52 203.88 L 404.51 203.24 C 406.79 203.44 409.08 203.65 411.37 203.87 C 409.29 206.20 409.26 209.31 409.01 212.25 C 407.99 217.15 407.48 222.13 407.14 227.12 C 404.02 227.28 400.90 227.39 397.82 227.85 C 395.18 228.20 392.54 228.61 389.94 229.18 C 389.06 226.63 388.82 223.93 388.66 221.26 C 383.48 221.03 377.15 222.10 373.39 217.63 C 369.21 211.77 368.87 204.21 368.50 197.27 C 368.57 191.94 367.32 186.59 368.36 181.31 Z" fill="#fbc79b" opacity="1.00" stroke="#fbc79b" stroke-width="0.25"/>
<path d="M 205.87 185.45 C 207.07 185.55 208.27 185.68 209.47 185.82 C 217.06 190.80 226.30 193.17 235.35 192.27 C 231.54 193.51 227.52 193.60 223.55 193.33 C 223.91 195.27 224.27 197.21 224.61 199.16 C 218.41 198.06 212.49 195.63 207.26 192.13 C 207.63 191.12 208.00 190.11 208.37 189.11 C 207.53 187.89 206.70 186.67 205.87 185.45 Z" fill="#d77853" opacity="1.00" stroke="#d77853" stroke-width="0.25"/>
<path d="M 0.00 185.63 C 20.31 185.76 40.61 185.57 60.92 185.59 C 62.76 187.48 64.56 190.87 61.83 192.83 C 58.02 193.93 53.93 193.12 50.00 193.33 C 33.34 193.54 16.65 193.12 0.00 193.79 L 0.00 185.63 Z" fill="#fdfefd" opacity="1.00" stroke="#fdfefd" stroke-width="0.25"/>
<path d="M 376.08 194.27 C 373.40 195.06 372.28 190.29 374.97 189.77 C 375.63 189.98 376.96 190.42 377.62 190.63 C 377.30 191.90 377.34 193.48 376.08 194.27 Z" fill="#1a1920" opacity="1.00" stroke="#1a1920" stroke-width="0.25"/>
<path d="M 406.93 195.95 C 408.68 193.88 411.96 195.06 413.34 196.98 C 413.78 199.45 412.62 201.82 411.37 203.87 C 409.08 203.65 406.79 203.44 404.51 203.24 C 404.11 200.55 404.83 197.78 406.93 195.95 Z" fill="#fed6aa" opacity="1.00" stroke="#fed6aa" stroke-width="0.25"/>
<path d="M 419.02 199.62 C 443.06 199.49 467.10 199.86 491.13 199.66 C 491.15 199.96 491.18 200.56 491.20 200.86 C 490.93 201.82 490.66 202.76 490.37 203.71 C 492.62 205.47 495.18 204.51 497.49 203.41 C 497.64 204.83 497.91 206.24 498.52 207.55 C 500.48 205.87 501.21 203.41 501.75 200.99 C 501.80 203.07 501.92 205.15 502.02 207.23 C 500.70 210.76 496.63 212.49 493.04 212.30 C 474.34 212.29 455.63 212.40 436.93 212.35 C 428.98 212.16 420.99 212.63 413.06 211.85 C 415.09 208.38 416.91 204.78 418.32 201.01 C 418.50 200.66 418.85 199.97 419.02 199.62 Z" fill="#f06046" opacity="1.00" stroke="#f06046" stroke-width="0.25"/>
<path d="M 143.96 210.05 C 147.77 204.78 154.85 202.64 161.06 204.17 C 164.54 204.92 167.06 208.42 166.89 211.95 C 167.17 216.19 164.88 220.25 161.62 222.83 C 156.49 225.53 150.42 224.28 144.86 224.72 C 144.78 227.98 145.13 231.42 143.66 234.45 C 141.18 234.29 138.70 234.19 136.23 234.14 C 135.94 238.42 136.81 242.75 136.10 246.99 C 134.43 247.40 132.71 247.53 131.01 247.68 C 129.26 247.63 129.09 245.03 128.24 243.80 C 125.51 236.68 120.72 229.84 121.32 221.89 C 121.59 216.23 126.39 211.43 131.90 210.59 C 135.90 210.06 139.94 210.20 143.96 210.05 Z" fill="#00093e" opacity="1.00" stroke="#00093e" stroke-width="0.25"/>
<path d="M 185.67 219.58 C 187.41 219.15 189.22 219.23 191.00 219.20 C 228.33 219.35 265.67 219.28 303.01 219.25 C 305.09 218.91 307.47 219.93 307.60 222.29 C 308.13 240.41 307.30 258.58 308.17 276.70 C 307.88 282.73 308.72 288.93 307.74 294.85 C 305.75 296.57 302.93 295.62 300.53 295.86 C 283.23 296.32 265.91 296.18 248.60 296.23 C 247.23 296.78 245.96 297.53 244.68 298.25 C 242.34 298.27 240.01 298.26 237.68 298.25 C 236.82 297.61 235.96 296.97 235.10 296.34 C 234.58 296.35 233.54 296.37 233.02 296.38 C 232.89 296.36 232.61 296.31 232.47 296.29 C 230.99 295.96 229.50 295.80 227.99 295.80 C 214.35 295.71 200.70 296.09 187.07 295.67 C 183.89 295.45 183.31 291.64 183.38 289.10 C 183.35 268.05 183.50 246.99 183.44 225.94 C 183.49 223.72 183.34 220.76 185.67 219.58 Z" fill="#042d5d" opacity="1.00" stroke="#042d5d" stroke-width="0.25"/>
<path d="M 144.86 224.72 C 150.42 224.28 156.49 225.53 161.62 222.83 C 164.28 226.08 163.94 230.43 164.52 234.35 C 165.05 240.24 165.67 247.48 160.69 251.76 C 157.01 254.16 152.25 252.98 148.10 253.28 C 147.64 255.55 148.61 258.56 147.02 260.34 C 142.08 259.83 137.49 257.78 133.08 255.62 C 131.31 253.59 131.63 250.26 131.01 247.68 C 132.71 247.53 134.43 247.40 136.10 246.99 C 136.81 242.75 135.94 238.42 136.23 234.14 C 138.70 234.19 141.18 234.29 143.66 234.45 C 145.13 231.42 144.78 227.98 144.86 224.72 Z" fill="#fbc69c" opacity="1.00" stroke="#fbc69c" stroke-width="0.25"/>
<path d="M 187.51 227.01 C 187.80 225.73 186.70 222.80 188.94 223.02 C 199.63 222.24 210.34 223.50 221.04 223.10 C 233.03 222.87 245.02 222.72 257.01 223.11 C 267.02 222.23 277.04 223.71 287.05 222.98 C 292.30 222.62 297.57 222.87 302.81 223.28 C 302.78 224.81 302.76 226.34 302.75 227.88 C 286.99 240.20 268.43 247.99 251.25 257.97 C 250.64 257.25 250.03 256.54 249.42 255.83 C 247.84 253.80 245.76 251.70 242.93 252.19 C 237.24 252.17 234.79 259.63 237.91 263.88 C 236.29 265.30 234.58 266.66 232.60 267.56 C 225.64 270.87 218.84 274.51 212.00 278.07 C 204.69 281.98 196.94 285.07 190.02 289.70 C 189.46 289.58 188.35 289.35 187.79 289.24 C 187.78 268.49 187.80 247.75 187.51 227.01 Z" fill="#00c1cc" opacity="1.00" stroke="#00c1cc" stroke-width="0.25"/>
<path d="M 251.25 257.97 C 268.43 247.99 286.99 240.20 302.75 227.88 C 303.47 233.90 303.06 239.97 302.92 246.01 C 302.80 261.25 302.87 276.49 302.69 291.73 C 288.47 292.52 274.22 291.96 259.98 292.12 C 237.34 291.56 214.68 292.21 192.04 291.42 C 190.41 291.27 188.24 291.19 187.79 289.24 C 188.35 289.35 189.46 289.58 190.02 289.70 C 196.94 285.07 204.69 281.98 212.00 278.07 C 218.84 274.51 225.64 270.87 232.60 267.56 C 234.58 266.66 236.29 265.30 237.91 263.88 C 238.10 264.24 238.48 264.96 238.66 265.32 C 240.39 270.50 249.07 271.78 251.48 266.59 C 252.09 263.75 251.50 260.82 251.25 257.97 Z" fill="#007aaf" opacity="1.00" stroke="#007aaf" stroke-width="0.25"/>
<path d="M 389.94 229.18 C 392.54 228.61 395.18 228.20 397.82 227.85 C 400.83 227.68 403.88 227.74 406.85 228.29 C 408.04 230.16 407.34 232.73 408.02 234.84 L 407.37 234.54 C 405.04 233.71 402.59 233.32 400.13 233.24 C 396.01 233.18 392.01 234.56 388.74 237.05 C 388.09 234.44 387.62 231.12 389.94 229.18 Z" fill="#fcfdfc" opacity="1.00" stroke="#fcfdfc" stroke-width="0.25"/>
<path d="M 0.00 229.14 C 29.21 229.02 58.43 229.50 87.63 228.64 C 90.82 228.50 93.96 230.73 94.33 234.00 C 94.93 237.17 92.97 239.90 91.16 242.27 C 85.77 242.60 80.36 242.70 74.96 242.62 C 49.97 242.34 24.99 242.55 0.00 242.39 L 0.00 229.14 Z" fill="#05244a" opacity="1.00" stroke="#05244a" stroke-width="0.25"/>
<path d="M 154.56 231.85 C 155.01 229.86 156.93 230.68 158.34 230.71 C 158.28 232.12 158.88 233.96 157.06 234.54 C 155.88 233.95 155.05 233.06 154.56 231.85 Z" fill="#1a1920" opacity="1.00" stroke="#1a1920" stroke-width="0.25"/>
<path d="M 388.74 237.05 C 392.01 234.56 396.01 233.18 400.13 233.24 C 398.24 237.82 393.04 239.55 390.88 243.95 C 391.45 244.95 392.03 245.96 392.63 246.96 C 393.62 247.51 394.60 248.07 395.55 248.70 C 389.58 258.00 387.11 269.08 381.72 278.68 C 377.94 282.72 371.99 283.41 367.45 286.33 C 369.04 280.38 371.88 274.85 373.88 269.03 C 378.08 258.04 382.08 246.85 388.74 237.05 Z" fill="#00a8b5" opacity="1.00" stroke="#00a8b5" stroke-width="0.25"/>
<path d="M 400.13 233.24 C 402.59 233.32 405.04 233.71 407.37 234.54 C 407.41 235.01 407.48 235.96 407.51 236.44 C 405.94 237.13 404.00 237.41 402.98 238.94 C 400.49 242.18 398.12 245.52 395.55 248.70 C 394.60 248.07 393.62 247.51 392.63 246.96 C 392.03 245.96 391.45 244.95 390.88 243.95 C 393.04 239.55 398.24 237.82 400.13 233.24 Z" fill="#00b9c4" opacity="1.00" stroke="#00b9c4" stroke-width="0.25"/>
<path d="M 407.37 234.54 L 408.02 234.84 C 414.11 237.42 417.11 244.57 416.27 250.86 C 411.12 262.17 406.87 273.91 400.78 284.76 C 395.48 294.48 385.13 301.40 374.00 301.87 C 371.79 302.22 369.04 301.67 367.51 303.71 C 376.80 303.06 387.21 302.10 394.16 295.16 C 403.07 286.78 406.67 274.77 411.94 264.10 C 413.60 261.07 413.76 257.12 416.57 254.83 C 418.84 273.46 421.80 292.03 423.78 310.70 C 419.51 310.46 415.24 310.67 410.98 310.60 C 406.88 310.63 402.61 310.14 398.74 311.81 C 398.09 315.39 396.43 320.30 400.37 322.63 C 404.46 324.34 409.11 323.35 413.43 323.30 C 418.84 323.47 424.25 323.17 429.67 323.32 C 430.71 328.51 431.86 333.71 432.26 339.01 C 432.48 340.84 431.77 342.58 431.05 344.23 C 417.96 344.09 404.87 344.23 391.78 344.24 C 385.15 344.29 378.54 343.54 371.92 343.74 C 370.92 342.14 369.68 340.58 369.49 338.65 C 368.58 330.73 369.62 322.76 369.73 314.83 C 369.90 311.85 369.20 308.89 368.03 306.17 C 362.72 305.49 357.35 305.78 352.04 305.18 C 341.69 303.99 331.41 302.18 321.33 299.60 C 321.15 297.88 320.97 296.18 320.89 294.46 C 321.43 291.93 322.08 289.40 323.18 287.04 C 324.35 285.61 326.24 285.23 328.00 285.45 C 340.69 286.78 353.48 287.91 366.25 287.25 C 366.55 287.02 367.15 286.56 367.45 286.33 C 371.99 283.41 377.94 282.72 381.72 278.68 C 387.11 269.08 389.58 258.00 395.55 248.70 C 398.12 245.52 400.49 242.18 402.98 238.94 C 404.00 237.41 405.94 237.13 407.51 236.44 C 407.48 235.96 407.41 235.01 407.37 234.54 Z" fill="#00c8d3" opacity="1.00" stroke="#00c8d3" stroke-width="0.25"/>
<path d="M 63.65 254.01 C 66.12 247.89 74.91 245.83 79.97 250.00 C 82.42 252.31 82.47 255.93 82.95 259.03 C 84.84 276.35 87.44 293.58 89.53 310.87 C 90.12 316.62 91.62 322.29 91.52 328.10 L 91.44 328.29 C 90.41 330.23 89.55 332.49 87.58 333.70 C 84.80 335.47 81.38 335.45 78.21 335.67 C 78.59 344.12 79.53 352.55 79.36 361.02 C 79.51 364.92 78.69 369.30 81.20 372.66 C 81.32 372.87 81.55 373.28 81.67 373.49 C 81.21 373.52 80.31 373.59 79.86 373.62 C 80.38 374.60 80.91 375.58 81.43 376.57 C 80.78 377.14 80.14 377.71 79.49 378.28 C 76.01 375.62 74.06 371.38 74.12 367.01 C 72.86 333.86 69.41 300.82 64.98 267.94 C 64.47 263.32 62.92 258.69 63.65 254.01 Z" fill="#001f4c" opacity="1.00" stroke="#001f4c" stroke-width="0.25"/>
<path d="M 400.78 284.76 C 406.87 273.91 411.12 262.17 416.27 250.86 C 416.37 252.18 416.48 253.50 416.57 254.83 C 413.76 257.12 413.60 261.07 411.94 264.10 C 406.67 274.77 403.07 286.78 394.16 295.16 C 387.21 302.10 376.80 303.06 367.51 303.71 C 369.04 301.67 371.79 302.22 374.00 301.87 C 385.13 301.40 395.48 294.48 400.78 284.76 Z" fill="#056984" opacity="1.00" stroke="#056984" stroke-width="0.25"/>
<path d="M 237.91 263.88 C 234.79 259.63 237.24 252.17 242.93 252.19 C 245.76 251.70 247.84 253.80 249.42 255.83 C 251.04 260.26 247.25 263.19 244.25 265.66 C 242.38 265.54 240.52 265.42 238.66 265.32 C 238.48 264.96 238.10 264.24 237.91 263.88 Z" fill="#eb383a" opacity="1.00" stroke="#eb383a" stroke-width="0.25"/>
<path d="M 129.35 259.26 C 130.61 258.06 131.85 256.84 133.08 255.62 C 137.49 257.78 142.08 259.83 147.02 260.34 C 147.83 261.99 148.58 263.67 149.28 265.37 C 146.40 265.68 143.17 267.52 140.55 265.48 C 136.94 263.16 132.55 262.21 129.35 259.26 Z" fill="#f6f5e7" opacity="1.00" stroke="#f6f5e7" stroke-width="0.25"/>
<path d="M 249.42 255.83 C 250.03 256.54 250.64 257.25 251.25 257.97 C 251.50 260.82 252.09 263.75 251.48 266.59 C 249.07 271.78 240.39 270.50 238.66 265.32 C 240.52 265.42 242.38 265.54 244.25 265.66 C 247.25 263.19 251.04 260.26 249.42 255.83 Z" fill="#056984" opacity="1.00" stroke="#056984" stroke-width="0.25"/>
<path d="M 113.23 268.24 C 116.88 263.05 122.95 259.45 129.35 259.26 C 132.55 262.21 136.94 263.16 140.55 265.48 C 143.17 267.52 146.40 265.68 149.28 265.37 C 149.59 265.31 150.21 265.19 150.52 265.13 C 153.76 273.31 155.29 282.08 158.81 290.14 C 162.43 293.76 167.01 296.52 171.87 298.15 C 178.43 299.18 185.10 299.38 191.71 298.80 C 196.90 299.12 202.10 299.28 207.30 299.11 C 209.04 303.03 209.00 307.37 209.38 311.56 C 195.92 311.49 182.47 311.36 169.01 311.32 C 165.56 311.34 162.12 311.11 158.69 310.73 C 154.72 307.20 149.86 304.91 145.64 301.71 C 143.63 297.39 140.68 293.61 138.01 289.70 C 135.97 296.00 133.86 302.31 132.58 308.82 C 131.39 314.17 130.52 319.58 130.03 325.04 C 129.39 331.66 129.95 338.32 129.33 344.95 C 119.03 345.43 108.66 345.10 98.49 343.36 C 93.81 339.67 92.53 333.82 91.44 328.29 L 91.52 328.10 C 93.41 324.24 93.72 319.88 94.90 315.80 C 96.66 309.48 98.68 303.24 100.47 296.93 C 103.84 287.04 106.94 276.76 113.23 268.24 Z" fill="#fcc03b" opacity="1.00" stroke="#fcc03b" stroke-width="0.25"/>
<path d="M 308.17 276.70 C 308.99 278.03 309.52 279.51 309.11 281.10 C 308.55 285.15 308.46 289.25 308.81 293.34 C 308.78 294.85 308.12 296.20 307.34 297.46 C 312.05 297.79 316.63 299.07 321.33 299.60 C 331.41 302.18 341.69 303.99 352.04 305.18 C 357.35 305.78 362.72 305.49 368.03 306.17 C 368.34 307.78 368.67 309.40 368.99 311.02 C 330.37 311.81 291.73 311.27 253.10 311.24 C 251.81 306.17 250.27 301.17 248.60 296.23 C 265.91 296.18 283.23 296.32 300.53 295.86 C 302.93 295.62 305.75 296.57 307.74 294.85 C 308.72 288.93 307.88 282.73 308.17 276.70 Z" fill="#ede6b3" opacity="1.00" stroke="#ede6b3" stroke-width="0.25"/>
<path d="M 309.11 281.10 C 310.62 280.79 312.13 280.48 313.64 280.16 C 313.98 281.25 314.33 282.34 314.67 283.44 C 317.55 284.48 321.06 284.57 323.18 287.04 C 322.08 289.40 321.43 291.93 320.89 294.46 C 316.83 294.62 312.80 294.03 308.81 293.34 C 308.46 289.25 308.55 285.15 309.11 281.10 Z" fill="#f8c099" opacity="1.00" stroke="#f8c099" stroke-width="0.25"/>
<path d="M 138.01 289.70 C 140.68 293.61 143.63 297.39 145.64 301.71 C 145.55 305.01 145.18 308.30 144.92 311.59 C 143.59 310.71 142.27 309.85 140.95 308.97 C 139.73 309.78 138.51 310.59 137.29 311.41 C 136.32 310.37 135.36 309.33 134.40 308.29 C 134.07 309.56 133.75 310.84 133.43 312.12 C 133.21 311.29 132.79 309.65 132.58 308.82 C 133.86 302.31 135.97 296.00 138.01 289.70 Z" fill="#d7951a" opacity="1.00" stroke="#d7951a" stroke-width="0.25"/>
<path d="M 308.81 293.34 C 312.80 294.03 316.83 294.62 320.89 294.46 C 320.97 296.18 321.15 297.88 321.33 299.60 C 316.63 299.07 312.05 297.79 307.34 297.46 C 308.12 296.20 308.78 294.85 308.81 293.34 Z" fill="#faf7c8" opacity="1.00" stroke="#faf7c8" stroke-width="0.25"/>
<path d="M 232.47 296.29 C 232.61 296.31 232.89 296.36 233.02 296.38 C 232.02 301.32 230.88 306.24 229.86 311.18 C 225.30 311.13 220.73 310.61 216.19 311.10 C 215.94 309.32 215.72 307.54 215.45 305.77 C 214.86 303.59 214.77 300.63 212.41 299.57 C 210.75 299.09 209.01 299.15 207.30 299.11 C 202.10 299.28 196.90 299.12 191.71 298.80 C 204.76 296.10 218.28 299.50 231.41 297.36 C 231.67 297.09 232.21 296.56 232.47 296.29 Z" fill="#f6c9a0" opacity="1.00" stroke="#f6c9a0" stroke-width="0.25"/>
<path d="M 233.02 296.38 C 233.54 296.37 234.58 296.35 235.10 296.34 C 235.96 296.97 236.82 297.61 237.68 298.25 C 240.01 298.26 242.34 298.27 244.68 298.25 C 245.96 297.53 247.23 296.78 248.60 296.23 C 250.27 301.17 251.81 306.17 253.10 311.24 C 245.35 311.25 237.60 311.42 229.86 311.18 C 230.88 306.24 232.02 301.32 233.02 296.38 Z" fill="#02254d" opacity="1.00" stroke="#02254d" stroke-width="0.25"/>
<path d="M 207.30 299.11 C 209.01 299.15 210.75 299.09 212.41 299.57 C 214.77 300.63 214.86 303.59 215.45 305.77 C 213.82 308.09 211.81 310.10 209.38 311.56 C 209.00 307.37 209.04 303.03 207.30 299.11 Z" fill="#fbd081" opacity="1.00" stroke="#fbd081" stroke-width="0.25"/>
<path d="M 145.64 301.71 C 149.86 304.91 154.72 307.20 158.69 310.73 C 157.17 311.15 156.15 312.27 156.31 313.90 C 156.11 316.73 156.35 319.57 156.54 322.39 C 159.24 322.73 161.94 323.08 164.67 323.18 C 164.84 333.20 164.65 343.22 164.78 353.24 C 158.14 349.15 151.76 344.63 145.11 340.56 C 144.31 337.78 144.43 334.85 144.42 332.00 C 144.49 325.19 144.50 318.38 144.92 311.59 C 145.18 308.30 145.55 305.01 145.64 301.71 Z" fill="#eeecbb" opacity="1.00" stroke="#eeecbb" stroke-width="0.25"/>
<path d="M 215.45 305.77 C 215.72 307.54 215.94 309.32 216.19 311.10 C 213.92 311.35 211.65 311.52 209.38 311.56 C 211.81 310.10 213.82 308.09 215.45 305.77 Z" fill="#f8f2d2" opacity="1.00" stroke="#f8f2d2" stroke-width="0.25"/>
<path d="M 368.03 306.17 C 369.20 308.89 369.90 311.85 369.73 314.83 C 369.60 317.42 369.40 320.01 369.27 322.60 C 366.70 322.68 364.14 322.74 361.59 322.70 C 359.98 322.67 358.37 322.64 356.77 322.66 C 319.20 322.75 281.64 322.80 244.07 322.73 C 219.15 322.87 194.21 322.38 169.30 322.92 C 167.76 323.04 166.21 323.12 164.67 323.18 C 161.94 323.08 159.24 322.73 156.54 322.39 C 156.35 319.57 156.11 316.73 156.31 313.90 C 156.15 312.27 157.17 311.15 158.69 310.73 C 162.12 311.11 165.56 311.34 169.01 311.32 C 182.47 311.36 195.92 311.49 209.38 311.56 C 211.65 311.52 213.92 311.35 216.19 311.10 C 220.73 310.61 225.30 311.13 229.86 311.18 C 237.60 311.42 245.35 311.25 253.10 311.24 C 291.73 311.27 330.37 311.81 368.99 311.02 C 368.67 309.40 368.34 307.78 368.03 306.17 Z" fill="#9c2a3a" opacity="1.00" stroke="#9c2a3a" stroke-width="0.25"/>
<path d="M 134.40 308.29 C 135.36 309.33 136.32 310.37 137.29 311.41 C 138.51 310.59 139.73 309.78 140.95 308.97 C 142.27 309.85 143.59 310.71 144.92 311.59 C 144.50 318.38 144.49 325.19 144.42 332.00 C 144.43 334.85 144.31 337.78 145.11 340.56 C 143.80 341.96 142.72 343.99 140.66 344.35 C 136.92 345.04 133.10 344.80 129.33 344.95 C 129.95 338.32 129.39 331.66 130.03 325.04 C 130.52 319.58 131.39 314.17 132.58 308.82 C 132.79 309.65 133.21 311.29 133.43 312.12 C 133.75 310.84 134.07 309.56 134.40 308.29 Z" fill="#e19d1d" opacity="1.00" stroke="#e19d1d" stroke-width="0.25"/>
<path d="M 398.74 311.81 C 402.61 310.14 406.88 310.63 410.98 310.60 C 415.24 310.67 419.51 310.46 423.78 310.70 C 424.41 310.77 425.68 310.90 426.31 310.97 C 424.65 311.72 423.03 312.54 421.41 313.35 C 421.29 315.51 421.17 317.67 421.06 319.84 C 421.60 320.52 422.15 321.21 422.70 321.90 C 419.55 321.87 416.34 321.96 413.43 323.30 C 409.11 323.35 404.46 324.34 400.37 322.63 C 396.43 320.30 398.09 315.39 398.74 311.81 Z" fill="#962037" opacity="1.00" stroke="#962037" stroke-width="0.25"/>
<path d="M 426.31 310.97 C 430.84 310.63 435.47 310.58 439.98 311.23 C 445.28 312.25 446.59 320.58 441.93 323.20 C 437.88 323.90 433.75 323.31 429.67 323.32 C 424.25 323.17 418.84 323.47 413.43 323.30 C 416.34 321.96 419.55 321.87 422.70 321.90 C 422.15 321.21 421.60 320.52 421.06 319.84 C 421.17 317.67 421.29 315.51 421.41 313.35 C 423.03 312.54 424.65 311.72 426.31 310.97 Z" fill="#8c2234" opacity="1.00" stroke="#8c2234" stroke-width="0.25"/>
<path d="M 369.27 322.60 C 369.40 320.01 369.60 317.42 369.73 314.83 C 369.62 322.76 368.58 330.73 369.49 338.65 C 369.68 340.58 370.92 342.14 371.92 343.74 C 372.55 347.79 372.14 351.91 372.24 356.00 C 372.39 387.29 372.25 418.59 372.20 449.88 C 369.30 452.33 366.49 455.12 365.26 458.81 C 364.58 460.47 363.36 461.79 361.78 462.63 C 361.28 441.43 361.62 420.22 361.50 399.01 C 361.48 373.57 361.47 348.13 361.59 322.70 C 364.14 322.74 366.70 322.68 369.27 322.60 Z" fill="#eaebb1" opacity="1.00" stroke="#eaebb1" stroke-width="0.25"/>
<path d="M 164.67 323.18 C 166.21 323.12 167.76 323.04 169.30 322.92 C 169.39 333.75 169.17 344.59 169.64 355.42 C 168.00 354.73 166.36 354.05 164.78 353.24 C 164.65 343.22 164.84 333.20 164.67 323.18 Z" fill="#0c204f" opacity="1.00" stroke="#0c204f" stroke-width="0.25"/>
<path d="M 169.30 322.92 C 194.21 322.38 219.15 322.87 244.07 322.73 C 281.64 322.80 319.20 322.75 356.77 322.66 C 356.52 370.42 356.59 418.20 356.90 465.96 C 355.62 465.67 354.35 465.34 353.06 465.16 C 313.39 464.84 273.69 464.83 234.01 464.87 C 230.03 464.87 225.94 465.50 222.08 464.21 C 222.46 463.97 223.22 463.49 223.61 463.25 C 229.71 459.55 235.61 455.54 241.57 451.61 C 245.10 449.06 248.85 446.57 251.44 442.99 C 251.69 439.18 247.27 436.77 243.90 437.22 C 239.44 438.04 235.47 440.37 231.30 442.04 C 229.46 442.51 227.56 442.64 225.68 442.79 C 226.85 442.63 228.03 442.48 229.21 442.35 C 230.29 440.95 231.44 439.58 232.20 437.97 C 232.10 435.80 230.93 433.88 230.01 431.98 C 224.36 421.44 218.54 411.00 212.68 400.58 C 205.57 388.09 198.79 375.41 192.23 362.63 C 188.90 356.10 179.95 352.97 173.55 356.81 C 173.11 357.05 172.23 357.52 171.80 357.76 C 171.05 356.99 170.33 356.22 169.64 355.42 C 169.17 344.59 169.39 333.75 169.30 322.92 Z" fill="#eceaba" opacity="1.00" stroke="#eceaba" stroke-width="0.25"/>
<path d="M 356.77 322.66 C 358.37 322.64 359.98 322.67 361.59 322.70 C 361.47 348.13 361.48 373.57 361.50 399.01 C 361.62 420.22 361.28 441.43 361.78 462.63 C 361.75 463.95 361.68 465.29 361.63 466.63 C 360.04 466.45 358.45 466.29 356.90 465.96 C 356.59 418.20 356.52 370.42 356.77 322.66 Z" fill="#052052" opacity="1.00" stroke="#052052" stroke-width="0.25"/>
<path d="M 91.44 328.29 C 92.53 333.82 93.81 339.67 98.49 343.36 C 96.79 346.32 94.92 349.46 95.10 353.01 C 94.92 357.96 97.72 362.23 100.32 366.20 C 96.19 366.28 92.04 365.64 87.92 366.05 C 84.42 366.37 82.01 369.44 81.20 372.66 C 78.69 369.30 79.51 364.92 79.36 361.02 C 79.53 352.55 78.59 344.12 78.21 335.67 C 81.38 335.45 84.80 335.47 87.58 333.70 C 89.55 332.49 90.41 330.23 91.44 328.29 Z" fill="#eeecba" opacity="1.00" stroke="#eeecba" stroke-width="0.25"/>
<path d="M 140.66 344.35 C 142.72 343.99 143.80 341.96 145.11 340.56 C 151.76 344.63 158.14 349.15 164.78 353.24 C 166.36 354.05 168.00 354.73 169.64 355.42 C 170.33 356.22 171.05 356.99 171.80 357.76 C 172.23 357.52 173.11 357.05 173.55 356.81 C 174.35 357.80 175.16 358.80 175.97 359.80 C 175.47 360.44 174.97 361.08 174.47 361.72 C 175.48 362.03 176.49 362.34 177.51 362.65 C 178.74 365.81 178.97 369.21 178.70 372.56 C 178.07 372.76 176.83 373.16 176.21 373.36 C 177.06 373.78 177.91 374.21 178.77 374.65 C 177.63 374.90 176.49 375.15 175.35 375.42 C 175.04 377.61 175.08 379.92 174.24 381.99 C 173.25 382.66 172.20 383.24 171.16 383.84 C 171.66 383.87 172.66 383.93 173.16 383.97 C 166.59 385.75 159.89 383.51 153.55 381.86 C 149.02 379.21 144.25 376.99 139.70 374.37 C 137.73 371.08 135.63 366.20 131.07 366.45 C 120.82 366.38 110.57 366.58 100.32 366.20 C 97.72 362.23 94.92 357.96 95.10 353.01 C 94.92 349.46 96.79 346.32 98.49 343.36 C 108.66 345.10 119.03 345.43 129.33 344.95 C 133.10 344.80 136.92 345.04 140.66 344.35 Z" fill="#da262a" opacity="1.00" stroke="#da262a" stroke-width="0.25"/>
<path d="M 371.92 343.74 C 378.54 343.54 385.15 344.29 391.78 344.24 C 393.19 344.49 394.58 344.81 395.98 345.11 C 395.91 361.70 397.09 378.26 398.37 394.79 C 398.46 413.28 398.39 431.80 397.61 450.29 C 389.44 447.90 380.18 445.72 372.20 449.88 C 372.25 418.59 372.39 387.29 372.24 356.00 C 372.14 351.91 372.55 347.79 371.92 343.74 Z" fill="#002330" opacity="1.00" stroke="#002330" stroke-width="0.25"/>
<path d="M 391.78 344.24 C 404.87 344.23 417.96 344.09 431.05 344.23 C 429.29 349.74 426.39 355.10 426.64 361.05 C 428.12 393.13 430.33 425.18 431.35 457.29 C 428.39 453.68 425.25 449.91 420.70 448.32 C 415.43 445.94 409.46 446.37 403.88 447.12 C 403.09 436.39 401.25 425.77 400.39 415.05 C 399.66 408.30 399.52 401.49 398.37 394.79 C 397.09 378.26 395.91 361.70 395.98 345.11 C 394.58 344.81 393.19 344.49 391.78 344.24 Z" fill="#003c48" opacity="1.00" stroke="#003c48" stroke-width="0.25"/>
<path d="M 173.55 356.81 C 179.95 352.97 188.90 356.10 192.23 362.63 C 198.79 375.41 205.57 388.09 212.68 400.58 C 212.59 401.60 212.50 402.63 212.41 403.66 C 211.92 403.85 210.93 404.23 210.43 404.42 C 210.79 405.13 211.14 405.84 211.50 406.56 C 207.99 407.47 204.98 409.50 202.84 412.42 C 201.80 412.39 200.77 412.35 199.74 412.33 C 199.41 415.03 197.69 417.11 195.30 418.33 C 194.17 416.77 193.04 415.23 191.91 413.68 C 190.78 414.00 189.66 414.32 188.54 414.65 C 186.68 411.35 184.94 407.99 182.79 404.88 C 178.32 398.58 177.27 390.77 175.62 383.42 C 175.00 383.55 173.77 383.83 173.16 383.97 C 172.66 383.93 171.66 383.87 171.16 383.84 C 172.20 383.24 173.25 382.66 174.24 381.99 C 175.08 379.92 175.04 377.61 175.35 375.42 C 176.49 375.15 177.63 374.90 178.77 374.65 C 177.91 374.21 177.06 373.78 176.21 373.36 C 176.83 373.16 178.07 372.76 178.70 372.56 C 178.97 369.21 178.74 365.81 177.51 362.65 C 176.49 362.34 175.48 362.03 174.47 361.72 C 174.97 361.08 175.47 360.44 175.97 359.80 C 175.16 358.80 174.35 357.80 173.55 356.81 Z" fill="#cf2428" opacity="1.00" stroke="#cf2428" stroke-width="0.25"/>
<path d="M 87.92 366.05 C 92.04 365.64 96.19 366.28 100.32 366.20 C 110.57 366.58 120.82 366.38 131.07 366.45 C 135.63 366.20 137.73 371.08 139.70 374.37 C 138.41 376.73 137.59 379.73 135.14 381.18 C 132.03 382.10 128.66 382.31 125.48 381.67 C 119.74 380.32 113.84 381.23 108.03 381.15 C 103.47 381.12 98.89 381.15 94.39 381.92 C 89.13 382.84 83.80 381.31 79.49 378.28 C 80.14 377.71 80.78 377.14 81.43 376.57 C 80.91 375.58 80.38 374.60 79.86 373.62 C 80.31 373.59 81.21 373.52 81.67 373.49 C 81.55 373.28 81.32 372.87 81.20 372.66 C 82.01 369.44 84.42 366.37 87.92 366.05 Z" fill="#001a43" opacity="1.00" stroke="#001a43" stroke-width="0.25"/>
<path d="M 94.39 381.92 C 98.89 381.15 103.47 381.12 108.03 381.15 C 113.84 381.23 119.74 380.32 125.48 381.67 C 125.28 384.02 125.06 386.37 124.73 388.71 C 121.75 388.99 118.76 389.27 115.76 389.13 C 111.65 388.89 107.52 388.65 103.41 389.01 C 100.44 389.34 97.45 389.08 94.56 388.37 C 94.51 386.21 94.44 384.07 94.39 381.92 Z" fill="#02011c" opacity="1.00" stroke="#02011c" stroke-width="0.25"/>
<path d="M 153.55 381.86 C 159.89 383.51 166.59 385.75 173.16 383.97 C 173.77 383.83 175.00 383.55 175.62 383.42 C 177.27 390.77 178.32 398.58 182.79 404.88 C 183.10 420.05 184.31 435.21 184.06 450.38 C 176.36 451.73 167.95 448.85 160.99 453.42 C 160.00 452.44 159.01 451.47 158.06 450.47 C 156.76 427.59 154.34 404.76 153.55 381.86 Z" fill="#892730" opacity="1.00" stroke="#892730" stroke-width="0.25"/>
<path d="M 103.41 389.01 C 107.52 388.65 111.65 388.89 115.76 389.13 C 116.58 405.16 116.16 421.24 116.23 437.29 C 112.09 438.03 107.84 438.39 103.72 437.38 C 103.49 421.26 103.64 405.13 103.41 389.01 Z" fill="#002248" opacity="1.00" stroke="#002248" stroke-width="0.25"/>
<path d="M 398.37 394.79 C 399.52 401.49 399.66 408.30 400.39 415.05 C 401.25 425.77 403.09 436.39 403.88 447.12 C 401.64 448.16 399.57 449.51 397.56 450.94 L 397.61 450.29 C 398.39 431.80 398.46 413.28 398.37 394.79 Z" fill="#f4ebbc" opacity="1.00" stroke="#f4ebbc" stroke-width="0.25"/>
<path d="M 212.68 400.58 C 218.54 411.00 224.36 421.44 230.01 431.98 C 230.93 433.88 232.10 435.80 232.20 437.97 C 231.44 439.58 230.29 440.95 229.21 442.35 C 228.03 442.48 226.85 442.63 225.68 442.79 C 225.24 444.04 224.81 445.29 224.39 446.56 C 221.31 448.30 217.19 449.01 215.38 452.35 C 214.47 453.77 213.55 455.18 212.56 456.55 C 207.00 449.35 203.18 441.05 198.84 433.11 C 195.27 427.03 192.00 420.78 188.54 414.65 C 189.66 414.32 190.78 414.00 191.91 413.68 C 193.04 415.23 194.17 416.77 195.30 418.33 C 197.69 417.11 199.41 415.03 199.74 412.33 C 200.77 412.35 201.80 412.39 202.84 412.42 C 204.98 409.50 207.99 407.47 211.50 406.56 C 211.14 405.84 210.79 405.13 210.43 404.42 C 210.93 404.23 211.92 403.85 212.41 403.66 C 212.50 402.63 212.59 401.60 212.68 400.58 Z" fill="#c3222c" opacity="1.00" stroke="#c3222c" stroke-width="0.25"/>
<path d="M 182.79 404.88 C 184.94 407.99 186.68 411.35 188.54 414.65 C 192.00 420.78 195.27 427.03 198.84 433.11 C 203.18 441.05 207.00 449.35 212.56 456.55 C 214.25 459.00 215.60 461.67 216.95 464.33 C 212.17 465.89 207.11 464.96 202.19 464.94 C 201.79 463.24 201.40 461.54 200.91 459.87 C 198.94 452.74 190.64 450.37 184.06 450.38 C 184.31 435.21 183.10 420.05 182.79 404.88 Z" fill="#f0ebbe" opacity="1.00" stroke="#f0ebbe" stroke-width="0.25"/>
<path d="M 79.03 448.33 C 72.90 449.33 71.49 438.77 77.03 437.21 C 80.95 436.37 85.01 437.01 88.98 436.85 C 93.89 437.02 98.86 436.42 103.72 437.38 C 107.84 438.39 112.09 438.03 116.23 437.29 C 121.45 436.51 126.74 436.98 132.00 436.76 C 134.41 436.84 137.09 436.33 139.23 437.73 C 141.75 440.27 141.70 444.67 139.40 447.37 C 138.23 449.16 135.86 448.38 134.09 448.59 C 127.76 448.19 121.13 449.42 115.08 447.04 C 112.48 446.21 109.75 444.42 107.03 445.91 C 98.22 449.89 88.36 447.77 79.03 448.33 Z" fill="#02355d" opacity="1.00" stroke="#02355d" stroke-width="0.25"/>
<path d="M 231.30 442.04 C 235.47 440.37 239.44 438.04 243.90 437.22 C 247.27 436.77 251.69 439.18 251.44 442.99 C 248.85 446.57 245.10 449.06 241.57 451.61 C 235.61 455.54 229.71 459.55 223.61 463.25 C 224.84 456.97 231.65 454.80 235.63 450.63 C 237.70 448.34 236.63 445.24 235.82 442.68 C 234.31 442.47 232.81 442.25 231.30 442.04 Z" fill="#040726" opacity="1.00" stroke="#040726" stroke-width="0.25"/>
<path d="M 225.68 442.79 C 227.56 442.64 229.46 442.51 231.30 442.04 C 232.81 442.25 234.31 442.47 235.82 442.68 C 236.63 445.24 237.70 448.34 235.63 450.63 C 231.65 454.80 224.84 456.97 223.61 463.25 C 223.22 463.49 222.46 463.97 222.08 464.21 C 220.73 464.95 219.35 465.61 217.97 466.30 C 217.63 465.64 217.28 464.98 216.95 464.33 C 215.60 461.67 214.25 459.00 212.56 456.55 C 213.55 455.18 214.47 453.77 215.38 452.35 C 217.19 449.01 221.31 448.30 224.39 446.56 C 224.81 445.29 225.24 444.04 225.68 442.79 Z" fill="#01063a" opacity="1.00" stroke="#01063a" stroke-width="0.25"/>
<path d="M 403.88 447.12 C 409.46 446.37 415.43 445.94 420.70 448.32 C 425.25 449.91 428.39 453.68 431.35 457.29 C 431.62 460.24 431.69 463.21 431.58 466.18 C 409.34 466.83 387.06 466.31 364.81 466.45 C 365.09 463.90 365.18 461.36 365.26 458.81 C 366.49 455.12 369.30 452.33 372.20 449.88 C 380.18 445.72 389.44 447.90 397.61 450.29 L 397.56 450.94 C 399.57 449.51 401.64 448.16 403.88 447.12 Z" fill="#070115" opacity="1.00" stroke="#070115" stroke-width="0.25"/>
<path d="M 160.99 453.42 C 167.95 448.85 176.36 451.73 184.06 450.38 C 190.64 450.37 198.94 452.74 200.91 459.87 C 201.00 461.92 200.94 463.96 200.88 466.02 C 190.94 466.55 180.98 466.30 171.03 466.37 C 167.16 466.32 163.21 466.75 159.45 465.64 C 159.13 465.66 158.48 465.72 158.16 465.74 C 158.08 464.09 158.00 462.43 157.81 460.80 C 157.03 457.40 156.59 453.76 158.06 450.47 C 159.01 451.47 160.00 452.44 160.99 453.42 Z" fill="#0d021c" opacity="1.00" stroke="#0d021c" stroke-width="0.25"/>
<path d="M 69.71 457.02 C 70.81 452.52 76.27 448.91 80.67 451.36 C 85.62 453.38 87.08 460.36 83.37 464.22 C 80.61 467.28 75.91 467.53 72.55 465.33 C 70.56 463.10 69.10 460.06 69.71 457.02 Z" fill="#011a45" opacity="1.00" stroke="#011a45" stroke-width="0.25"/>
<path d="M 131.55 455.38 C 133.23 452.93 135.94 450.75 139.01 450.68 C 142.52 451.45 145.56 454.35 146.24 457.92 C 146.41 460.65 144.80 463.09 143.16 465.14 C 139.98 467.61 135.09 467.50 132.51 464.22 C 130.81 461.69 129.57 458.11 131.55 455.38 Z" fill="#001649" opacity="1.00" stroke="#001649" stroke-width="0.25"/>
<path d="M 361.78 462.63 C 363.36 461.79 364.58 460.47 365.26 458.81 C 365.18 461.36 365.09 463.90 364.81 466.45 C 387.06 466.31 409.34 466.83 431.58 466.18 C 436.19 464.43 441.14 465.24 445.94 465.17 C 451.02 465.22 456.21 464.74 461.16 466.20 C 460.35 467.10 459.46 468.08 458.11 467.90 C 448.07 468.36 437.97 467.35 427.97 468.67 C 410.99 468.77 394.01 468.76 377.03 468.78 C 323.02 468.43 269.01 468.92 215.01 468.78 C 170.01 469.13 125.01 468.42 80.01 468.64 C 67.36 467.46 54.65 468.28 41.97 468.10 C 40.32 468.21 38.78 467.61 37.86 466.21 C 49.34 464.79 61.04 466.21 72.55 465.33 C 75.91 467.53 80.61 467.28 83.37 464.22 C 84.81 464.90 86.37 465.29 87.97 465.19 C 101.32 465.12 114.66 465.25 128.01 465.19 C 129.56 465.21 131.04 464.69 132.51 464.22 C 135.09 467.50 139.98 467.61 143.16 465.14 C 147.72 465.58 152.30 465.38 156.87 465.12 C 157.19 463.67 157.51 462.24 157.81 460.80 C 158.00 462.43 158.08 464.09 158.16 465.74 C 158.48 465.72 159.13 465.66 159.45 465.64 C 163.21 466.75 167.16 466.32 171.03 466.37 C 180.98 466.30 190.94 466.55 200.88 466.02 C 200.94 463.96 201.00 461.92 200.91 459.87 C 201.40 461.54 201.79 463.24 202.19 464.94 C 207.11 464.96 212.17 465.89 216.95 464.33 C 217.28 464.98 217.63 465.64 217.97 466.30 C 219.35 465.61 220.73 464.95 222.08 464.21 C 225.94 465.50 230.03 464.87 234.01 464.87 C 273.69 464.83 313.39 464.84 353.06 465.16 C 354.35 465.34 355.62 465.67 356.90 465.96 C 358.45 466.29 360.04 466.45 361.63 466.63 C 361.68 465.29 361.75 463.95 361.78 462.63 Z" fill="#e2d5ac" opacity="1.00" stroke="#e2d5ac" stroke-width="0.25"/>
<path d="M 489.26 488.10 C 489.39 486.27 489.58 483.44 492.14 484.60 C 492.70 486.35 493.31 488.10 493.93 489.85 C 492.92 488.60 491.92 487.34 490.93 486.10 C 490.51 486.60 489.67 487.60 489.26 488.10 Z" fill="#007aaf" opacity="1.00" stroke="#007aaf" stroke-width="0.25"/>
<path d="M 489.26 488.10 C 489.67 487.60 490.51 486.60 490.93 486.10 C 491.92 487.34 492.92 488.60 493.93 489.85 C 494.74 490.87 495.60 491.88 496.31 493.00 C 497.16 495.79 494.96 498.10 493.76 500.38 C 494.68 500.32 496.50 500.18 497.42 500.12 C 496.70 502.90 492.57 503.50 491.67 500.53 C 490.55 496.54 487.66 492.29 489.26 488.10 Z" fill="#03d7de" opacity="1.00" stroke="#03d7de" stroke-width="0.25"/>
<path d="M 502.11 493.34 C 502.71 490.25 504.54 485.75 508.47 486.62 C 506.71 488.78 504.14 490.54 503.58 493.45 C 502.75 497.26 503.77 501.24 502.64 505.01 C 501.29 502.81 500.27 500.38 500.68 497.75 C 501.20 496.29 501.73 494.84 502.11 493.34 Z" fill="#d1574e" opacity="1.00" stroke="#d1574e" stroke-width="0.25"/>
<path d="M 497.16 488.02 C 498.02 488.28 498.55 488.85 498.75 489.71 C 499.54 492.35 500.19 495.03 500.68 497.75 C 500.27 500.38 501.29 502.81 502.64 505.01 C 502.49 505.43 502.20 506.27 502.05 506.69 C 500.36 503.85 499.77 500.57 499.56 497.32 C 499.40 494.06 497.60 491.21 497.16 488.02 Z" fill="#1a1920" opacity="1.00" stroke="#1a1920" stroke-width="0.25"/>
<path d="M 498.75 489.71 C 499.87 490.91 500.99 492.12 502.11 493.34 C 501.73 494.84 501.20 496.29 500.68 497.75 C 500.19 495.03 499.54 492.35 498.75 489.71 Z" fill="#de9978" opacity="1.00" stroke="#de9978" stroke-width="0.25"/>
<path d="M 488.53 496.66 C 489.03 499.93 488.41 503.21 487.11 506.22 C 486.68 506.31 485.82 506.49 485.39 506.58 C 486.39 503.25 487.79 500.06 488.53 496.66 Z" fill="#00a8b5" opacity="1.00" stroke="#00a8b5" stroke-width="0.25"/>
</svg>